<svg viewBox="0 0 16 16" fill="none" xmlns="http://www.w3.org/2000/svg" role="img"><circle cx="8" cy="8" r="7.25" stroke="#212121" stroke-width="1.5"/><path d="M8 15.25c-.235 0-.518-.106-.841-.418-.327-.316-.655-.809-.947-1.476C5.63 12.024 5.25 10.131 5.25 8c0-2.13.38-4.024.962-5.356.292-.668.62-1.16.947-1.476C7.482.856 7.765.75 8 .75s.518.106.841.418c.327.316.655.808.947 1.476.583 1.332.962 3.225.962 5.356 0 2.13-.38 4.024-.962 5.356-.292.668-.62 1.16-.947 1.476-.323.312-.606.418-.841.418Zm-7-9.5h14m-14 4.5h14" stroke="#212121" stroke-width="1.5"/></svg>
