<svg class="icon" xmlns="http://www.w3.org/2000/svg" viewBox="0 0 100 100" role="img"><defs><style>.cls-1{fill:#212121;}</style></defs><path class="cls-1" d="M52.39,7.39A42.61,42.61,0,0,0,9.78,50c0,1.12,0,2.24.13,3.34H22.75A30.72,30.72,0,0,1,22.56,50a29.82,29.82,0,1,1,14.9,25.83,1.69,1.69,0,0,0-2.33.62l-4.69,8.12a1.71,1.71,0,0,0,.64,2.33A42.61,42.61,0,1,0,52.39,7.39Z"/><path class="cls-1" d="M16.06,52.46H25.4A1.7,1.7,0,0,1,26.88,55l-4.67,8.1-4.68,8.09a1.7,1.7,0,0,1-3,0L9.91,63.12,5.23,55a1.7,1.7,0,0,1,1.48-2.56Z"/><rect class="cls-1" x="51.8" y="46" width="5.68" height="19.8" rx="0.64" transform="translate(-23.52 55.01) rotate(-45)"/><rect class="cls-1" x="45.88" y="37.29" width="5.68" height="14.2" rx="0.54"/></svg>
