<svg class="icon" viewBox="0 0 100 100" xmlns="http://www.w3.org/2000/svg" role="img"><defs><style>.cls-1,.cls-3{fill:#010101}.cls-2{fill:#fff}.cls-3{fill-rule:evenodd}</style></defs><path class="cls-1" d="M49.97 16.57L19.92 5.96v65.4l30.05-9.72V16.57z"/><path class="cls-2" d="M49.24 16.54l31.2-10.61v65.4l-31.2-9.73V16.54z"/><path class="cls-2" d="M12.13 82.81l37.11-12.37V16.53L12.13 28.9v53.91z"/><path class="cls-1" d="M66.16 83.62l5.26 8.65 2.77-8.04-8.03-.61zM24.75 35.11c-.2-.19.26 1.58.89 2.22a3.63 3.63 0 0 0 2.46 1.3 8.06 8.06 0 0 0 3.06-.58 5.05 5.05 0 0 0 2.49-1.92 1.63 1.63 0 0 0 .21-1.39.92.92 0 0 0-1-.84 19.32 19.32 0 0 0-2.78.67c-.74.22-2.26.69-2.92.83a4.59 4.59 0 0 1-2.41-.29zM43.48 56.34c-.3-.11-6.35-2.62-7.2-3s-2.43-1.09-3.28-1.42c2.28-3.52 3.72-6.18 3.91-6.58.36-.74 2.77-5.46 2.83-5.75a8.42 8.42 0 0 0 .07-1.65c-.05-.26-.94.25-2.14.65s-3.49 1.9-4.37 2.08-3.73 1.26-5.18 1.74S24 43.73 22.84 44s-2.11.33-2.75.52a4.22 4.22 0 0 0 .26 1.15 2.93 2.93 0 0 0 1.46 1.1 6.21 6.21 0 0 0 2.36 0 4.25 4.25 0 0 0 1.56-.77c.12-.2-.07-.81.14-1s3-.83 4-1.14a47.77 47.77 0 0 1 5.57-1.63c-.17.57-3.38 6.93-4.42 8.83s-7 10.24-8.32 11.71c-1 1.12-3.32 4-4.14 4.63a6 6 0 0 0 1.93-.24c1.66-1 4.41-4.44 5.3-5.49a93.1 93.1 0 0 0 6.79-9.13c.36.15 3.25 2.51 4 3A47.32 47.32 0 0 0 41 58.08c.64.28 3.12 1.43 3.23 1a6.22 6.22 0 0 0-.75-2.74z"/><path class="cls-3" d="M29.49 87.85a19.36 19.36 0 0 0 1.74.93 37.47 37.47 0 0 0 3.93 1.74 43.43 43.43 0 0 0 5.41 1.65c1 .22 2.1.41 3.16.58.1 0 3 .35 3.54.35h2.9c1.13-.1 2.19-.16 3.32-.32.9-.13 1.9-.29 2.87-.52.71-.16 1.45-.32 2.16-.55s1.45-.45 2.19-.7c.48-.17 1-.39 1.51-.58s.94-.42 1.42-.62 1.25-.61 1.9-.93 1.09-.58 1.64-.9 1.39-1 1.9-1a1 1 0 0 1 1 1c0 .93-1.26 1.22-1.84 1.64s-1.35.74-2 1.1a39.53 39.53 0 0 1-3.87 1.74A44.42 44.42 0 0 1 57.29 94c-.61.13-1.22.29-1.83.39-.33.06-3.68.58-4.61.58H46.6c-1.13-.1-2.32-.23-3.45-.39s-2.06-.35-3.06-.58c-.77-.16-1.61-.38-2.35-.61A34.87 34.87 0 0 1 34 92.13a33.4 33.4 0 0 1-6.73-3.38.81.81 0 0 1-.42-.8.91.91 0 0 1 .93-.94 5.32 5.32 0 0 1 1.71.84zM48.24 69.71l-35.11 11.7v-51.8l35.11-11.69zm2-53.31v54.12A1.18 1.18 0 0 1 50 71a.66.66 0 0 1-.29.26c-.8.32-37.08 12.5-37.56 12.5a1.06 1.06 0 0 1-.93-.68V28.8a1.36 1.36 0 0 1 .22-.51 1.77 1.77 0 0 1 1-.52c.55-.19 36.27-12.17 36.79-12.17.27 0 .98.22.98.8z"/><path class="cls-3" d="M79.45 70l-29.21-9.11V17.24l29.21-9.92zm1.97-64v65.2a1 1 0 0 1-1 1.06c-.42 0-3.45-1-4-1.19L64.25 67.3c-.9-.29-1.84-.58-2.71-.87s-1.61-.49-2.38-.74c-3.45-1.07-7-2.13-10.4-3.29a1.26 1.26 0 0 1-.45-.58V16.31a1 1 0 0 1 .29-.49c.25-.29 11.3-4 15.65-5.41C65.41 10 79.94 5 80.39 5a1 1 0 0 1 1.03 1z"/><path class="cls-1" d="M88.83 83.62L49.8 71.18l.17-54.16 38.86 12.37v54.23z"/><path d="M69.16 41.22l-3.83 9.26 7 2.14zm-2.3-8.74l5 1.53 9.16 33-5.17-1.56L74 58.68l-10.65-3.24L61.06 61l-5.17-1.6z" fill-rule="evenodd" fill="currentColor"/></svg>
