<svg class="icon" xmlns="http://www.w3.org/2000/svg" viewBox="0 0 100 100" role="img"><defs><style>.cls-1{fill:currentColor;}</style></defs><g id="Layer_1" data-name="Layer 1"><path class="cls-1" d="M85.38,5H14.62A5.14,5.14,0,0,0,9.5,10.12V89.88A5.14,5.14,0,0,0,14.62,95H85.38a5.14,5.14,0,0,0,5.12-5.12V10.12A5.14,5.14,0,0,0,85.38,5ZM50,75.22a4,4,0,0,1-4,4H24.77a4,4,0,0,1-4-4v-2a4,4,0,0,1,4-4H46a4,4,0,0,1,4,4ZM79.25,51.64a4,4,0,0,1-4,4H24.77a4,4,0,0,1-4-4v-2a4,4,0,0,1,4-4H75.23a4,4,0,0,1,4,4Zm0-24.89a4,4,0,0,1-4,4H24.77a4,4,0,0,1-4-4v-2a4,4,0,0,1,4-4H75.23a4,4,0,0,1,4,4Z"/></g></svg>
