<svg xmlns="http://www.w3.org/2000/svg" viewBox="0 0 50 50" role="img"><path d="M37 33.5c3.1-4 4.5-9 4.1-14-.5-5-2.8-9.6-6.6-13-3.8-3.3-8.7-5.1-13.7-4.9-5 .2-9.8 2.2-13.4 5.8-3.5 3.6-5.6 8.4-5.7 13.4-.2 5 1.6 9.9 4.9 13.7 3.3 3.8 8 6.1 13 6.6s10-1 14-4.1l.1.1 10.5 10.5c.2.2.5.4.8.5.3.1.6.2.9.2.3 0 .6-.1.9-.2.3-.1.6-.3.8-.5.2-.2.4-.5.5-.8.1-.3.2-.6.2-.9 0-.3-.1-.6-.2-.9-.1-.3-.3-.6-.5-.8L37.1 33.6l-.1-.1zm-5.1-22.6c1.4 1.4 2.5 3 3.3 4.8.8 1.8 1.2 3.7 1.2 5.7s-.4 3.9-1.1 5.7c-.8 1.9-1.9 3.5-3.3 4.9-1.4 1.4-3 2.5-4.8 3.2-1.8.7-3.7 1.1-5.7 1.1s-3.9-.4-5.7-1.2c-1.8-.8-3.4-1.9-4.8-3.3-2.7-2.8-4.3-6.5-4.3-10.5 0-3.9 1.6-7.7 4.3-10.4 2.8-2.8 6.5-4.3 10.4-4.3 4 .1 7.7 1.6 10.5 4.3z" fill-rule="evenodd" clip-rule="evenodd" fill="#15141a"/></svg>
