<svg class="icon" viewBox="0 0 100 100" xmlns="http://www.w3.org/2000/svg"><defs><style>.cls-1{fill:none;}.cls-2{fill:#212121;}</style></defs><rect class="cls-1" x="11.15" y="15.16" width="34.84" height="69.68"/><polygon class="cls-2" points="11.15 84.84 11.15 15.16 45.99 15.16 45.99 9.01 5 9.01 5 90.99 45.99 90.99 45.99 84.84 11.15 84.84"/><polygon class="cls-2" points="14.63 81.36 14.63 18.64 45.99 18.64 45.99 13.11 9.1 13.11 9.1 86.89 45.99 86.89 45.99 81.36 14.63 81.36"/><path class="cls-2" d="M27.12,43H85a4.1,4.1,0,0,1,4.1,4.1v3.56a3.86,3.86,0,0,1-3.86,3.86H27.12a4.1,4.1,0,0,1-4.1-4.1V47.13A4.1,4.1,0,0,1,27.12,43Z"/><path class="cls-2" d="M55.12,31.28H95.83a3.48,3.48,0,0,1,3.48,3.48v4.76A3.28,3.28,0,0,1,96,42.79H55.12a3.48,3.48,0,0,1-3.48-3.48V34.76a3.48,3.48,0,0,1,3.48-3.48Z" transform="translate(48.3 -42.52) rotate(45)"/><path class="cls-2" d="M55.17,57.21H95.88a3.48,3.48,0,0,1,3.48,3.48v4.76a3.28,3.28,0,0,1-3.28,3.28H55.17a3.48,3.48,0,0,1-3.48-3.48V60.69a3.48,3.48,0,0,1,3.48-3.48Z" transform="translate(173.45 54.09) rotate(135)"/></svg>
