<svg xmlns="http://www.w3.org/2000/svg" viewBox="0 0 100 100" role="img"><path d="m85.9 74.8-4.1-7.5c-.5-.8-.7-1.8-.7-2.7V42.8c-.4-13.3-9.6-24.7-22.6-27.8-1-4.7-5.5-7.7-10.2-6.8-3.4.7-6.1 3.4-6.8 6.8-13 3-22.2 14.4-22.6 27.8v21.7c0 .9-.2 1.9-.7 2.7l-4.1 7.5c-1.5 2.8-.5 6.3 2.3 7.9.9.5 1.8.7 2.8.7h19.6c1.7 6.2 8 9.8 14.2 8.1 4-1.1 7.1-4.2 8.1-8.1h19.6c3.2 0 5.8-2.6 5.8-5.8.1-.9-.1-1.9-.6-2.7zm-61.9 0 1.8-3.2c1.1-2.1 1.7-4.5 1.7-6.9V42.8C28.2 31 38.2 22 50 22.5 61.8 22 71.8 31 72.4 42.8v21.7c0 2.4.6 4.8 1.7 6.9l1.8 3.2-51.9.2z" fill="#5b5b66"/></svg>
