<svg viewBox="0 0 16 11" fill="none" xmlns="http://www.w3.org/2000/svg" role="img"><g clip-path="url(#a)" fill="#5B5B66"><path d="M14.96 3.576a8.565 8.565 0 0 0-13.92 0A8.313 8.313 0 0 0 0 5.485a8.31 8.31 0 0 0 1.01 1.909 8.565 8.565 0 0 0 13.92 0 8.315 8.315 0 0 0 1.01-1.91 8.315 8.315 0 0 0-.98-1.908ZM8 9.455a7.07 7.07 0 0 1-6.343-3.97 7.07 7.07 0 0 1 12.686 0A7.07 7.07 0 0 1 8 9.455Z"/><path d="M8 2.455a3.03 3.03 0 1 0 0 6.06 3.03 3.03 0 0 0 0-6.06ZM8 7a1.515 1.515 0 1 1 0-3.03A1.515 1.515 0 0 1 8 7Z"/></g><defs><clipPath id="a"><path fill="#fff" d="M0 0h16v10.97H0z"/></clipPath></defs></svg>
