<svg xmlns="http://www.w3.org/2000/svg" xmlns:xlink="http://www.w3.org/1999/xlink" viewBox="0 0 100 100" role="img"><style>.st1{fill:#5b5b66}</style><defs><path id="SVGID_1_" d="M8 21.2h83.9v57.5H8z"/></defs><clipPath id="SVGID_00000129915885635954708300000004429671480350122146_"><use xlink:href="#SVGID_1_" overflow="visible"/></clipPath><g clip-path="url(#SVGID_00000129915885635954708300000004429671480350122146_)"><path class="st1" d="M86.5 40C72 19.8 44 15.2 23.8 29.7c-4 2.9-7.5 6.3-10.3 10.3-2.2 3.1-4.1 6.5-5.5 10 1.3 3.6 3.1 6.9 5.3 10C27.8 80.2 55.9 84.8 76 70.3c4-2.9 7.5-6.3 10.3-10.3 2.2-3.1 4-6.5 5.3-10-1.2-3.5-3-6.9-5.1-10zM50 70.8c-14.2 0-27.1-8.1-33.3-20.8 9-18.4 31.3-25.9 49.7-16.9 7.3 3.6 13.3 9.6 16.9 16.9C77.1 62.7 64.2 70.8 50 70.8z"/><path class="st1" d="M50 34.1c-8.8 0-15.9 7.1-15.9 15.9S41.2 65.9 50 65.9 65.9 58.8 65.9 50 58.8 34.1 50 34.1zm0 23.8c-4.4 0-7.9-3.6-7.9-7.9s3.6-7.9 7.9-7.9 7.9 3.6 7.9 7.9-3.5 7.9-7.9 7.9z"/></g></svg>
