<svg xmlns="http://www.w3.org/2000/svg" viewBox="0 0 17 16" role="img"><circle cx="12" cy="5" r="3" fill="#0090ed"/><path d="M14 11.3c-.1-.2-.1-.3-.1-.5V9c-.5.2-1.1.4-1.7.4v1.3c0 .5.1.9.3 1.3l.3.6H2.9l.3-.6c.2-.4.3-.9.3-1.3V6.6c.3-1.1.7-2.1 1.5-2.8.8-.7 1.9-1.1 3-1h.2c.3-.6.8-1.2 1.4-1.5C9.5.9 9.3.6 9 .4 8.7.1 8.4 0 8 0s-.8.1-1 .4c-.4.2-.6.6-.6.9-1.2.3-2.3 1-3.1 1.9-.8 1-1.2 2.2-1.3 3.4v4.1c0 .2 0 .4-.1.5l-.8 1.4c-.1.3-.1.5-.1.7 0 .2.1.4.2.5.1.2.2.3.4.4.2.1.4.1.5.1h3.7c.1.5.4.9.8 1.2.4.3.9.5 1.4.5s1-.2 1.3-.5c.4-.3.7-.7.8-1.2h3.7c.2 0 .4 0 .5-.1.2-.1.3-.2.4-.4.1-.2.2-.4.2-.5 0-.2 0-.4-.1-.5l-.8-1.5z" fill="#5b5b66"/></svg>
