<svg xmlns="http://www.w3.org/2000/svg" viewBox="0 0 100 100" role="img"><circle cx="70.5" cy="34.2" r="15.8" fill="#0090ed"/><path d="M81 67.3c-.5-1-.5-1.6-.5-2.6v-9.5c-2.6 1-5.8 2.1-8.9 2.1v6.8c0 2.6.5 4.7 1.6 6.8l1.6 3.2h-52l1.6-3.2c1-2.1 1.6-4.7 1.6-6.8V42.7c1.6-5.8 3.7-11 7.9-14.7s10-5.8 15.8-5.2h1c1.6-3.2 4.2-6.3 7.3-7.9-.5-2.1-1.6-3.7-3.1-4.7C53.2 8.5 51.6 8 49.5 8s-4.2.5-5.2 2.1c-2.1 1.1-3.2 3.1-3.2 4.7-6.3 1.6-12.1 5.3-16.3 10-4.2 5.3-6.3 11.5-6.8 17.9v21.5c0 1 0 2.1-.5 2.6l-4.2 7.3c-.5 1.6-.5 2.6-.5 3.7s.5 2.1 1.1 2.6c.5 1.1 1.1 1.6 2.1 2.1 1.1.5 2.1.5 2.6.5H38c.5 2.6 2.1 4.7 4.2 6.3s4.7 2.6 7.3 2.6c2.6 0 5.2-1 6.8-2.6 2.1-1.6 3.7-3.7 4.2-6.3H80c1 0 2.1 0 2.6-.5 1-.5 1.6-1 2.1-2.1.5-1 1-2.1 1-2.6 0-1 0-2.1-.5-2.6L81 67.3z" fill="#5b5b66"/></svg>
