<svg viewBox="0 0 16 16" fill="none" xmlns="http://www.w3.org/2000/svg" role="img"><g clip-path="url(#a)" fill="#212121"><path d="M14.96 6.576a8.565 8.565 0 0 0-13.92 0A8.313 8.313 0 0 0 0 8.485a8.31 8.31 0 0 0 1.01 1.909 8.566 8.566 0 0 0 13.92 0 8.314 8.314 0 0 0 1.01-1.91 8.315 8.315 0 0 0-.98-1.908ZM8 12.02a3.536 3.536 0 1 1 0-7.072 3.536 3.536 0 0 1 0 7.072Z"/><path d="M8 10.505a2.02 2.02 0 1 0 0-4.04 2.02 2.02 0 0 0 0 4.04Z"/></g><defs><clipPath id="a"><path fill="#fff" transform="translate(0 3)" d="M0 0h16v10.97H0z"/></clipPath></defs></svg>
