<svg class="icon" viewBox="0 0 100 100" xmlns="http://www.w3.org/2000/svg" aria-hidden="true" role="img"><path d="M91.7584 35.1907C89.8 30.48 85.8334 25.3943 82.7187 23.7869C85.2537 28.7565 86.7209 33.7417 87.2815 37.4622C87.2815 37.4696 87.2843 37.4878 87.2903 37.5373C82.195 24.8376 73.5553 19.7164 66.5003 8.56628C66.144 8.00247 65.7868 7.43717 65.4389 6.8413C65.2617 6.53698 65.0962 6.22601 64.9427 5.90905C64.6496 5.34315 64.4235 4.74499 64.2691 4.12669C64.2701 4.09742 64.2602 4.0688 64.2413 4.04646C64.2223 4.02412 64.1957 4.00967 64.1667 4.00594C64.139 3.99802 64.1097 3.99802 64.0821 4.00594C64.0757 4.00819 64.0664 4.01551 64.0596 4.01813C64.0497 4.02207 64.0371 4.03107 64.0266 4.03688C64.0317 4.03013 64.0422 4.01494 64.0454 4.01138C52.7261 10.6406 48.8861 22.9039 48.5332 29.0394C49.0582 29.0031 49.5817 28.959 50.1161 28.959C58.5635 28.959 65.9215 33.6032 69.8606 40.487C67.4546 38.7969 63.1454 37.1278 58.9947 37.8496C75.2023 45.9522 70.8512 73.8542 48.3926 72.8008C46.3926 72.7192 44.4162 72.3381 42.5293 71.67C42.0831 71.5022 41.6418 71.3218 41.2058 71.1289C40.9515 71.013 40.6975 70.8959 40.4464 70.7661C40.4554 70.7723 40.4687 70.7794 40.4779 70.7851C40.2577 70.6791 40.0389 70.5702 39.8217 70.4583C40.0324 70.5589 40.23 70.6696 40.4464 70.7661C34.9433 67.9221 30.3989 62.5467 29.8314 56.0199C29.8314 56.0199 31.9113 48.2697 44.7248 48.2697C46.11 48.2697 50.0702 44.4044 50.1435 43.2835C50.1268 42.9175 42.2841 39.7979 39.2267 36.7856C37.5931 35.1761 36.8174 34.4 36.1304 33.8178C35.7577 33.503 35.368 33.2088 34.9632 32.9366C33.9361 29.3434 33.8925 25.5403 34.8368 21.9244C30.2079 24.0321 26.6075 27.3638 23.99 30.3056H23.9692C22.1829 28.0431 22.3089 20.5795 22.4107 19.0212C22.3894 18.9246 21.0782 19.7018 20.9064 19.819C19.3302 20.9441 17.8566 22.2066 16.5028 23.5915C14.9628 25.1539 13.5558 26.842 12.2963 28.6382C9.39878 32.7443 7.34377 37.384 6.25005 42.289C6.22849 42.3867 6.2103 42.488 6.1893 42.5864C6.10455 42.9831 5.72318 44.9963 5.66993 45.4281C5.67387 45.3951 5.66581 45.4613 5.66993 45.4281C5.32215 47.5085 5.09987 49.6079 5.00506 51.715C5.00506 51.7918 5.00037 51.868 5.00037 51.945C5.00075 76.8276 25.1756 96.999 50.0612 96.999C72.3482 96.999 90.8533 80.8202 94.4762 59.5687C94.5525 58.992 94.6136 58.4122 94.6809 57.8304C95.5766 50.1036 94.5816 41.9821 91.7584 35.1907ZM87.2882 37.5046C87.2905 37.5206 87.2933 37.5372 87.2957 37.5532L87.2942 37.5483L87.2882 37.5046Z" fill="currentColor"/></svg>
